<svg xmlns="http://www.w3.org/2000/svg" width="21" height="21" viewBox="4.6 6.9 21 21" fill="#39DBB0">
  <g transform="translate(0,-1022.3622)">
    <path
       style="stroke:none"
       d="m 7.4375,10.53125 a 1.625,1.71875 0 1 1 -3.25,0 A 1.625,1.71875 0 1 1 7.4375,10.53125 Z"
       transform="matrix(1.7391609,0,0,1.7391609,-1.845236,1014.5575)" />
    <path
       style="stroke:none"
       d="m 7.4375,10.53125 a 1.625,1.71875 0 1 1 -3.25,0 A 1.625,1.71875 0 1 1 7.4375,10.53125 Z"
       transform="matrix(1.6727273,0,0,1.6727273,9.8568176,1014.4963)" />
    <path
       style="stroke:none"
       d="m 4.6553301,1049.8604 c 1.2912187,-8.5533 11.8390149,-13.0706 20.9116119,-8.2581 C 16.291549,1041.6404 10.915341,1043.5985 4.6553301,1049.8604 Z" />
  </g>
</svg>